<mxfile host="65bd71144e">
    <diagram id="zIjIwm0nTKnTULsNUUj2" name="Page-1">
        <mxGraphModel dx="607" dy="406" grid="1" gridSize="10" guides="1" tooltips="1" connect="1" arrows="1" fold="1" page="1" pageScale="1" pageWidth="1100" pageHeight="850" math="0" shadow="0">
            <root>
                <mxCell id="0"/>
                <mxCell id="1" parent="0"/>
                <mxCell id="4" style="edgeStyle=none;html=1;exitX=0;exitY=0.25;exitDx=0;exitDy=0;endArrow=none;endFill=0;fontFamily=CMU Typewriter Text;" parent="1" source="2" edge="1">
                    <mxGeometry relative="1" as="geometry">
                        <mxPoint x="120" y="373" as="targetPoint"/>
                    </mxGeometry>
                </mxCell>
                <mxCell id="5" value="Acceleration" style="edgeLabel;html=1;align=center;verticalAlign=middle;resizable=0;points=[];fontFamily=CMU Typewriter Text;" parent="4" vertex="1" connectable="0">
                    <mxGeometry x="-0.1931" y="-1" relative="1" as="geometry">
                        <mxPoint x="-17" y="-9" as="offset"/>
                    </mxGeometry>
                </mxCell>
                <mxCell id="6" style="edgeStyle=none;html=1;exitX=0;exitY=0.5;exitDx=0;exitDy=0;endArrow=none;endFill=0;fontFamily=CMU Typewriter Text;" parent="1" source="2" edge="1">
                    <mxGeometry relative="1" as="geometry">
                        <mxPoint x="120" y="395.20000000000005" as="targetPoint"/>
                    </mxGeometry>
                </mxCell>
                <mxCell id="7" value="Rotation Rate" style="edgeLabel;html=1;align=center;verticalAlign=middle;resizable=0;points=[];fontFamily=CMU Typewriter Text;" parent="6" vertex="1" connectable="0">
                    <mxGeometry x="0.6169" y="-2" relative="1" as="geometry">
                        <mxPoint x="18" y="-7" as="offset"/>
                    </mxGeometry>
                </mxCell>
                <mxCell id="8" style="edgeStyle=none;html=1;exitX=0;exitY=0.75;exitDx=0;exitDy=0;endArrow=none;endFill=0;fontFamily=CMU Typewriter Text;" parent="1" source="2" edge="1">
                    <mxGeometry relative="1" as="geometry">
                        <mxPoint x="120" y="417.6" as="targetPoint"/>
                    </mxGeometry>
                </mxCell>
                <mxCell id="9" value="Magnetic Field" style="edgeLabel;html=1;align=center;verticalAlign=middle;resizable=0;points=[];fontFamily=CMU Typewriter Text;" parent="8" vertex="1" connectable="0">
                    <mxGeometry x="0.537" y="-1" relative="1" as="geometry">
                        <mxPoint x="17" y="-7" as="offset"/>
                    </mxGeometry>
                </mxCell>
                <mxCell id="2" value="IMU" style="rounded=0;whiteSpace=wrap;html=1;fontFamily=CMU Typewriter Text;" parent="1" vertex="1">
                    <mxGeometry x="200" y="350" width="40" height="90" as="geometry"/>
                </mxCell>
                <mxCell id="12" style="edgeStyle=orthogonalEdgeStyle;html=1;exitX=0;exitY=0.5;exitDx=0;exitDy=0;endArrow=none;endFill=0;rounded=0;fontFamily=CMU Typewriter Text;" parent="1" source="10" edge="1">
                    <mxGeometry relative="1" as="geometry">
                        <mxPoint x="120" y="460" as="targetPoint"/>
                        <Array as="points">
                            <mxPoint x="280" y="395"/>
                            <mxPoint x="280" y="460"/>
                        </Array>
                    </mxGeometry>
                </mxCell>
                <mxCell id="14" value="GPS Course" style="edgeLabel;html=1;align=center;verticalAlign=middle;resizable=0;points=[];fontFamily=CMU Typewriter Text;" parent="12" vertex="1" connectable="0">
                    <mxGeometry x="0.9082" y="-2" relative="1" as="geometry">
                        <mxPoint x="18" y="-8" as="offset"/>
                    </mxGeometry>
                </mxCell>
                <mxCell id="13" style="edgeStyle=orthogonalEdgeStyle;rounded=0;html=1;exitX=0;exitY=0.75;exitDx=0;exitDy=0;endArrow=none;endFill=0;fontFamily=CMU Typewriter Text;" parent="1" source="10" edge="1">
                    <mxGeometry relative="1" as="geometry">
                        <mxPoint x="120" y="490" as="targetPoint"/>
                        <Array as="points">
                            <mxPoint x="300" y="418"/>
                            <mxPoint x="300" y="490"/>
                        </Array>
                    </mxGeometry>
                </mxCell>
                <mxCell id="15" value="Mathematical Models" style="edgeLabel;html=1;align=center;verticalAlign=middle;resizable=0;points=[];fontFamily=CMU Typewriter Text;" parent="13" vertex="1" connectable="0">
                    <mxGeometry x="0.7456" y="2" relative="1" as="geometry">
                        <mxPoint x="15" y="-12" as="offset"/>
                    </mxGeometry>
                </mxCell>
                <mxCell id="16" style="edgeStyle=orthogonalEdgeStyle;rounded=0;html=1;exitX=1;exitY=0.25;exitDx=0;exitDy=0;endArrow=classic;endFill=1;fontFamily=CMU Typewriter Text;" parent="1" source="10" edge="1">
                    <mxGeometry relative="1" as="geometry">
                        <mxPoint x="500" y="372.66666666666674" as="targetPoint"/>
                    </mxGeometry>
                </mxCell>
                <mxCell id="19" value="Roll" style="edgeLabel;html=1;align=center;verticalAlign=middle;resizable=0;points=[];fontFamily=CMU Typewriter Text;" parent="16" vertex="1" connectable="0">
                    <mxGeometry x="0.7292" relative="1" as="geometry">
                        <mxPoint x="30" as="offset"/>
                    </mxGeometry>
                </mxCell>
                <mxCell id="17" style="edgeStyle=orthogonalEdgeStyle;rounded=0;html=1;exitX=1;exitY=0.5;exitDx=0;exitDy=0;endArrow=classic;endFill=1;fontFamily=CMU Typewriter Text;" parent="1" source="10" edge="1">
                    <mxGeometry relative="1" as="geometry">
                        <mxPoint x="500" y="395.16666666666674" as="targetPoint"/>
                    </mxGeometry>
                </mxCell>
                <mxCell id="20" value="Pitch" style="edgeLabel;html=1;align=center;verticalAlign=middle;resizable=0;points=[];fontFamily=CMU Typewriter Text;" parent="17" vertex="1" connectable="0">
                    <mxGeometry x="0.753" y="2" relative="1" as="geometry">
                        <mxPoint x="30" as="offset"/>
                    </mxGeometry>
                </mxCell>
                <mxCell id="18" style="edgeStyle=orthogonalEdgeStyle;rounded=0;html=1;exitX=1;exitY=0.75;exitDx=0;exitDy=0;endArrow=classic;endFill=1;fontFamily=CMU Typewriter Text;" parent="1" source="10" edge="1">
                    <mxGeometry relative="1" as="geometry">
                        <mxPoint x="500" y="417.66666666666674" as="targetPoint"/>
                    </mxGeometry>
                </mxCell>
                <mxCell id="21" value="Yaw" style="edgeLabel;html=1;align=center;verticalAlign=middle;resizable=0;points=[];fontFamily=CMU Typewriter Text;" parent="18" vertex="1" connectable="0">
                    <mxGeometry relative="1" as="geometry">
                        <mxPoint x="55" as="offset"/>
                    </mxGeometry>
                </mxCell>
                <mxCell id="10" value="AHRS" style="rounded=0;whiteSpace=wrap;html=1;fontFamily=CMU Typewriter Text;" parent="1" vertex="1">
                    <mxGeometry x="340" y="350" width="90" height="90" as="geometry"/>
                </mxCell>
                <mxCell id="26" style="edgeStyle=none;html=1;exitX=0;exitY=0.5;exitDx=0;exitDy=0;endArrow=none;endFill=0;fontFamily=CMU Typewriter Text;" edge="1" parent="1" source="25">
                    <mxGeometry relative="1" as="geometry">
                        <mxPoint x="240" y="370" as="targetPoint"/>
                    </mxGeometry>
                </mxCell>
                <mxCell id="27" style="edgeStyle=none;html=1;exitX=1;exitY=0.5;exitDx=0;exitDy=0;endArrow=none;endFill=0;entryX=0.007;entryY=0.222;entryDx=0;entryDy=0;entryPerimeter=0;fontFamily=CMU Typewriter Text;" edge="1" parent="1" source="25" target="10">
                    <mxGeometry relative="1" as="geometry">
                        <mxPoint x="350" y="370" as="sourcePoint"/>
                        <mxPoint x="340" y="370" as="targetPoint"/>
                    </mxGeometry>
                </mxCell>
                <mxCell id="25" value="Correction" style="rounded=0;whiteSpace=wrap;html=1;fontFamily=CMU Typewriter Text;" vertex="1" parent="1">
                    <mxGeometry x="250" y="360" width="80" height="20" as="geometry"/>
                </mxCell>
            </root>
        </mxGraphModel>
    </diagram>
</mxfile>